# xmcd
#
# Track frame offsets:
#        150
#        32492
#        47984
#        57546
#        67075
#        78509
#        92365
#        104475
#        114863
#        125925
#        175633
#        191448
#        201608
#        213742
#
# Disc length: 3208 seconds
#
# Revision: 16
# Processed by: cddbd v1.5.2PL0 Copyright (c) Steve Scherf et al.
# Submitted via: jack 3.1.1
#
DISCID=d10c860e
DTITLE=Creedence Clearwater Revival - Cosmo's Factory - 40th Anniversary Edition
DYEAR=1970
DGENRE=Rock
TTITLE0=Ramble tamble  
TTITLE1=Before you accuse me  
TTITLE2=Travelin' band  
TTITLE3=Ooby dooby  
TTITLE4=Lookin' out my back door  
TTITLE5=Run through the jungle  
TTITLE6=Up around the bend  
TTITLE7=My baby left me  
TTITLE8=Who'll stop the rain  
TTITLE9=I heard it through the grapevine  
TTITLE10=Long as I can see the light  
TTITLE11=Travelin' band [remake take]
TTITLE12=Up around the bend [live in Amsterdam, 09-10-1971)
TTITLE13=Born on the bayou [feat. Booker T. and The MGs at Fantasy Studi
TTITLE13=os, 1970]
EXTD=CD 2008 - digitally remastered\nFantasy 8 88072 30880 0\n40th Ann
EXTD=iversary Edition
EXTT0=
EXTT1=
EXTT2=
EXTT3=
EXTT4=
EXTT5=
EXTT6=
EXTT7=
EXTT8=
EXTT9=
EXTT10=
EXTT11=[Bonus Track]
EXTT12=[Bonus Track]
EXTT13=[Bonus Track]
PLAYORDER=
